<svg width="64" height="64" viewBox="0 0 64 64" fill="none" xmlns="http://www.w3.org/2000/svg">
<path d="M25.2462 3.48245L50.4782 17.9596M25.2462 3.48245L22.7385 2M25.2462 3.48245L14.5995 21.8594M50.4782 17.9596L43.706 29.6489M50.4782 17.9596L53 19.4112M43.706 29.6489L38.5658 38.5214M43.706 29.6489L36.032 25.2335M38.5658 38.5214L33.6533 47.0009M38.5658 38.5214L25.957 31.2668M33.6533 47.0009L29.1674 54.7439C25.1474 61.6826 16.2441 64.0601 9.28127 60.0539C2.31845 56.0477 -0.0672092 47.1752 3.95279 40.2365L7.85552 33.5M33.6533 47.0009L25.8151 42.4913" stroke="#FF6105" stroke-width="2.5" stroke-linecap="round"/>
<path d="M62 40.7499C62 44.2017 59.3138 46.9998 56 46.9998C52.6862 46.9998 50 44.2017 50 40.7499C50 38.5902 52.349 35.7075 54.1073 33.8523C55.1483 32.7537 56.8517 32.7537 57.8927 33.8523C59.651 35.7075 62 38.5902 62 40.7499Z" stroke="#FF6105" stroke-width="2.5"/>
</svg>
