<svg width="50" height="60" viewBox="0 0 50 60" fill="none" xmlns="http://www.w3.org/2000/svg">
<path d="M49.1076 14.8668L34.5993 0.35871C34.3695 0.129023 34.0581 0 33.7334 0H5.951C2.66953 0 0 2.66976 0 5.95124V54.0489C0 57.3302 2.66964 60 5.95112 60H43.5151C46.7966 60 49.4663 57.3304 49.4663 54.0489V15.7327C49.4662 15.408 49.3371 15.0965 49.1076 14.8668ZM34.9583 4.18112L45.2856 14.5084H38.4604C37.5248 14.5084 36.6452 14.144 35.9838 13.4826C35.3225 12.8213 34.9581 11.9419 34.9583 11.0063V4.18112ZM47.0172 54.0488C47.0172 55.9799 45.4462 57.5509 43.5151 57.5509H5.951C4.01987 57.5509 2.44886 55.9799 2.44886 54.0488V5.95124C2.44898 4.02011 4.01999 2.44898 5.951 2.44898H32.5093V11.0061C32.509 12.5958 33.128 14.0902 34.252 15.2142C35.376 16.3382 36.8705 16.9572 38.4603 16.9572H47.0171L47.0172 54.0488Z" fill="#FF6105"/>
<path d="M26.9704 41.1904H26.4222C25.746 41.1904 25.1977 41.7386 25.1977 42.4149C25.1977 43.0912 25.746 43.6394 26.4222 43.6394H26.9704C27.6466 43.6394 28.1949 43.0912 28.1949 42.4149C28.1949 41.7386 27.6466 41.1904 26.9704 41.1904Z" fill="#FF6105"/>
<path d="M22.4608 41.1904H10.5672C9.89106 41.1904 9.34274 41.7386 9.34274 42.4149C9.34274 43.0912 9.89106 43.6394 10.5672 43.6394H22.4608C23.137 43.6394 23.6853 43.0912 23.6853 42.4149C23.6853 41.7386 23.1371 41.1904 22.4608 41.1904Z" fill="#FF6105"/>
<path d="M38.8989 35.5953H10.5674C9.89118 35.5953 9.34286 36.1435 9.34286 36.8198C9.34286 37.4961 9.89118 38.0443 10.5674 38.0443H38.8989C39.5751 38.0443 40.1234 37.4961 40.1234 36.8198C40.1234 36.1435 39.5751 35.5953 38.8989 35.5953Z" fill="#FF6105"/>
<path d="M38.8989 30H10.5674C9.89118 30 9.34286 30.5482 9.34286 31.2245C9.34286 31.9008 9.89118 32.449 10.5674 32.449H38.8989C39.5751 32.449 40.1234 31.9008 40.1234 31.2245C40.1234 30.5482 39.5751 30 38.8989 30Z" fill="#FF6105"/>
<path d="M38.8989 24.4048H10.5674C9.89118 24.4048 9.34286 24.953 9.34286 25.6293C9.34286 26.3056 9.89118 26.8538 10.5674 26.8538H38.8989C39.5751 26.8538 40.1234 26.3056 40.1234 25.6293C40.1234 24.953 39.5751 24.4048 38.8989 24.4048Z" fill="#FF6105"/>
</svg>
