<svg width="64" height="64" viewBox="0 0 64 64" fill="none" xmlns="http://www.w3.org/2000/svg">
<path d="M33.9943 26.1475C33.9935 23.1557 33.1539 20.224 31.5705 17.6855C29.987 15.147 27.7237 13.1034 25.0371 11.7867C22.3505 10.4701 19.3486 9.93327 16.3722 10.2372C13.3958 10.5411 10.5643 11.6736 8.19932 13.506C5.83431 15.3384 4.03055 17.7973 2.99292 20.6034C1.95529 23.4096 1.72538 26.4504 2.3293 29.3808C2.93322 32.3109 4.34676 35.0131 6.40938 37.1802C8.47202 39.3476 11.101 40.8929 13.9979 41.6408V58.0005C13.9979 59.0611 14.4192 60.0785 15.1692 60.8285C15.9193 61.5785 16.9365 61.9998 17.9972 61.9998C19.0578 61.9998 20.0751 61.5785 20.8251 60.8285C21.5751 60.0785 21.9964 59.0611 21.9964 58.0005V41.6408C25.431 40.754 28.4734 38.7509 30.6453 35.9463C32.8172 33.1417 33.9951 29.6946 33.9943 26.1475Z" stroke="#FF6105" stroke-width="2.5" stroke-linecap="round" stroke-linejoin="round"/>
<path d="M25.9723 12.2783C29.0344 10.5165 32.5938 9.81782 36.0945 10.2914C39.5954 10.7649 42.8413 12.384 45.3251 14.896C47.8092 17.4081 49.3918 20.6717 49.8262 24.1777C50.2605 27.6838 49.5219 31.2349 47.7257 34.2771L60.8167 47.3574C61.5451 48.1117 61.9483 49.1219 61.9392 50.1705C61.9301 51.2191 61.5097 52.2221 60.7679 52.9636C60.0265 53.7051 59.0235 54.1258 57.9748 54.1349C56.9262 54.1439 55.916 53.7408 55.1617 53.0124L42.0787 39.9321C40.2985 40.9828 38.3309 41.6768 36.2862 41.9754H36.171" stroke="#FF6105" stroke-width="2.5" stroke-linecap="round" stroke-linejoin="round"/>
<path d="M17.9972 28.1474C20.2059 28.1474 21.9964 26.3568 21.9964 24.1481C21.9964 21.9393 20.2059 20.1488 17.9972 20.1488C15.7884 20.1488 13.9979 21.9393 13.9979 24.1481C13.9979 26.3568 15.7884 28.1474 17.9972 28.1474Z" stroke="#FF6105" stroke-width="2.5" stroke-linecap="round" stroke-linejoin="round"/>
<path d="M17.9972 19.7468V7.99893C17.9972 6.40791 18.6292 4.88207 19.7542 3.75705C20.8792 2.63203 22.4051 2 23.9961 2C25.5871 2 27.1129 2.63203 28.238 3.75705C29.3629 4.88207 29.995 6.40791 29.995 7.99893V10.0402" stroke="#FF6105" stroke-width="2.5" stroke-linecap="round" stroke-linejoin="round"/>
</svg>
