<svg width="44" height="65" viewBox="0 0 44 65" fill="none" xmlns="http://www.w3.org/2000/svg">
<path d="M41.9889 21.9811C41.9919 25.2044 41.212 28.3802 39.7164 31.2355C38.2208 34.0908 36.0541 36.5401 33.4027 38.3729C30.0491 40.7172 26.0561 41.9745 21.9644 41.9745C17.8727 41.9745 13.8797 40.7172 10.5262 38.3729C7.71215 36.4026 5.45327 33.7404 3.96732 30.6432C2.48138 27.5459 1.8185 24.118 2.04259 20.6901C2.26669 17.2622 3.37021 13.9498 5.24674 11.0723C7.12327 8.19491 9.70952 5.84949 12.7561 4.26225C15.8027 2.675 19.2068 1.89947 22.6403 2.01044C26.0738 2.1214 29.4207 3.11512 32.3585 4.89577C35.2962 6.67642 37.7256 9.18394 39.4124 12.1765C41.0992 15.1691 41.9866 18.5459 41.9889 21.9811Z" stroke="#FF6105" stroke-width="2.5" stroke-miterlimit="10" stroke-linecap="square"/>
<path d="M21.9645 10.7529L25.5071 18.1383L33.4028 19.3391L27.6686 25.0733L29.0196 33.1791L21.9645 29.3664L14.9094 33.1791L16.2604 25.0733L10.5262 19.3391L18.4219 18.1383L21.9645 10.7529Z" fill="#FF6105"/>
<path d="M33.4028 38.373V62.0001L21.9645 53.4139L10.5262 62.0001V38.373C13.8798 40.7173 17.8728 41.9746 21.9645 41.9746C26.0562 41.9746 30.0492 40.7173 33.4028 38.373Z" stroke="#FF6105" stroke-width="2.5" stroke-miterlimit="10" stroke-linecap="square"/>
</svg>
