<svg width="66" height="62" viewBox="0 0 66 62" fill="none" xmlns="http://www.w3.org/2000/svg">
<path d="M5.82258 11.1085C6.51723 11.1085 7.08035 10.5454 7.08035 9.85078C7.08035 9.15614 6.51723 8.59302 5.82258 8.59302C5.12794 8.59302 4.56482 9.15614 4.56482 9.85078C4.56482 10.5454 5.12794 11.1085 5.82258 11.1085Z" fill="#1395B5"/>
<path d="M18.6189 24.5296H16.2941C12.2379 24.5296 8.34775 26.1409 5.47954 29.0091C2.61134 31.8773 1 35.7674 1 39.8237V42.1766C1.00027 44.974 1.76832 47.7177 3.22045 50.1086C4.67259 52.4996 6.75311 54.4461 9.23529 55.7362V61.0002H16.2941L17.4706 58.6472C17.9695 58.6923 42.1765 58.6472 42.1765 58.6472L43.3529 61.0002H49.2353V56.2943C54.5169 54.2259 58.7724 50.2432 59.8235 44.5296L64.5294 42.1766V33.9413H58.6471C57.1285 30.7913 54.6595 28.1975 51.5882 26.5254V18.6472C49.6195 18.6169 47.6839 19.1559 46.0143 20.1995C44.3446 21.243 43.0119 22.7466 42.1765 24.5296H37.5305" stroke="#FF6105" stroke-width="2" stroke-linecap="round" stroke-linejoin="round"/>
<path d="M49.8235 35.1177C50.7981 35.1177 51.5882 34.3276 51.5882 33.353C51.5882 32.3783 50.7981 31.5883 49.8235 31.5883C48.8489 31.5883 48.0588 32.3783 48.0588 33.353C48.0588 34.3276 48.8489 35.1177 49.8235 35.1177Z" fill="#1395B5"/>
<path d="M13.9412 29.2354H42.1765" stroke="#FF6105" stroke-width="2" stroke-linecap="round" stroke-linejoin="round"/>
<path d="M28.0587 29.2352C34.5562 29.2352 39.8234 23.968 39.8234 17.4705C39.8234 10.973 34.5562 5.70581 28.0587 5.70581C21.5612 5.70581 16.294 10.973 16.294 17.4705C16.294 23.968 21.5612 29.2352 28.0587 29.2352Z" stroke="#FF6105" stroke-width="2" stroke-linecap="round" stroke-linejoin="round"/>
<path d="M32.7647 11.5881L23.3529 23.3528" stroke="#FF6105" stroke-width="2" stroke-linecap="round" stroke-linejoin="round"/>
<path d="M23.9412 15.1175C24.9158 15.1175 25.7059 14.3275 25.7059 13.3528C25.7059 12.3782 24.9158 11.5881 23.9412 11.5881C22.9666 11.5881 22.1765 12.3782 22.1765 13.3528C22.1765 14.3275 22.9666 15.1175 23.9412 15.1175Z" stroke="#FF6105" stroke-width="2" stroke-linecap="round" stroke-linejoin="round"/>
<path d="M32.1764 23.3529C33.1511 23.3529 33.9412 22.5628 33.9412 21.5882C33.9412 20.6136 33.1511 19.8235 32.1764 19.8235C31.2018 19.8235 30.4117 20.6136 30.4117 21.5882C30.4117 22.5628 31.2018 23.3529 32.1764 23.3529Z" stroke="#FF6105" stroke-width="2" stroke-linecap="round" stroke-linejoin="round"/>
<path d="M45.7059 5.70588C47.0054 5.70588 48.0588 4.65243 48.0588 3.35294C48.0588 2.05345 47.0054 1 45.7059 1C44.4064 1 43.3529 2.05345 43.3529 3.35294C43.3529 4.65243 44.4064 5.70588 45.7059 5.70588Z" stroke="#FF6105" stroke-width="2" stroke-linecap="round" stroke-linejoin="round"/>
<path d="M29.5294 52.8437L35.3133 48.2165C35.7684 47.8687 36.0867 47.372 36.2124 46.8132C36.3381 46.2544 36.2632 45.6692 36.0009 45.16C35.8348 44.8605 35.6053 44.6008 35.3284 44.3991C35.0516 44.1974 34.734 44.0585 34.3979 43.9922C34.0619 43.9259 33.7154 43.9337 33.3827 44.0152C33.0499 44.0966 32.739 44.2497 32.4715 44.4637L30.4127 46.1107V36.889C30.4127 36.2649 30.1648 35.6664 29.7235 35.2252C29.2823 34.7839 28.6838 34.536 28.0598 34.536C27.4357 34.536 26.8372 34.7839 26.396 35.2252C25.9547 35.6664 25.7068 36.2649 25.7068 36.889V46.1112L23.7701 44.5618C23.2675 44.1512 22.6243 43.9534 21.9778 44.0108C21.3313 44.0681 20.7329 44.376 20.3105 44.8687C19.9358 45.3572 19.7675 45.9731 19.8417 46.5843C19.916 47.1954 20.2267 47.7531 20.7074 48.1378L26.5898 52.8437C27.007 53.1774 27.5253 53.3592 28.0596 53.3592C28.5939 53.3592 29.1122 53.1774 29.5294 52.8437Z" stroke="#FF6105" stroke-width="2" stroke-linecap="round" stroke-linejoin="round"/>
<path d="M53.4128 9.29968L56.9422 12.8291" stroke="#FF6105" stroke-width="2" stroke-linecap="round" stroke-linejoin="round"/>
<path d="M56.9422 9.29968L53.4128 12.8291" stroke="#FF6105" stroke-width="2" stroke-linecap="round" stroke-linejoin="round"/>
</svg>
