<svg width="60" height="60" viewBox="0 0 60 60" fill="none" xmlns="http://www.w3.org/2000/svg">
<path fill-rule="evenodd" clip-rule="evenodd" d="M-3.8147e-06 30C-3.8147e-06 46.5578 13.4422 60 30 60C46.5578 60 60 46.5578 60 30C60 13.4422 46.5578 0 30 0C13.4422 0 -3.8147e-06 13.4422 -3.8147e-06 30ZM3.27555 48.8278L0.862221 51.2411C0.428886 51.6744 0.428886 52.3789 0.862221 52.8122C1.29667 53.2467 2 53.2467 2.43333 52.8122L4.84666 50.4C5.27999 49.9656 5.27999 49.2622 4.84666 48.8278C4.41333 48.3944 3.70889 48.3944 3.27555 48.8278ZM0.918884 8.81444L3.33111 11.2278C3.76555 11.6611 4.46888 11.6611 4.90333 11.2278C5.33666 10.7944 5.33666 10.09 4.90333 9.65667L2.49 7.24333C2.05666 6.81 1.35222 6.81 0.918884 7.24333C0.48444 7.67667 0.48444 8.38111 0.918884 8.81444ZM27.7778 2.31C13.8489 3.41444 2.8 14.8122 2.24444 28.8889H5.58C6.12889 16.6533 15.69 6.74667 27.7778 5.65556V2.31ZM27.7778 54.3444C15.69 53.2533 6.12889 43.3467 5.58 31.1111H2.24444C2.8 45.1878 13.8489 56.5856 27.7778 57.69V54.3444ZM4.00555 5.61667L6.41778 8.02889C6.85222 8.46222 7.55555 8.46222 7.99 8.02889C8.42333 7.59556 8.42333 6.89111 7.99 6.45778L5.57666 4.04445C5.14333 3.61111 4.43888 3.61111 4.00555 4.04445C3.57111 4.47889 3.57111 5.18222 4.00555 5.61667ZM6.47444 51.9144L4.06111 54.3278C3.62777 54.7611 3.62777 55.4656 4.06111 55.8989C4.49444 56.3333 5.19889 56.3333 5.63222 55.8989L8.04556 53.4867C8.47889 53.0522 8.47889 52.3489 8.04556 51.9144C7.61222 51.4811 6.90778 51.4811 6.47444 51.9144ZM9.56111 55.1133L7.14777 57.5267C6.71444 57.96 6.71444 58.6644 7.14777 59.0978C7.58111 59.5311 8.28555 59.5311 8.71889 59.0978L11.1322 56.6844C11.5656 56.2511 11.5656 55.5467 11.1322 55.1133C10.6989 54.68 9.99444 54.68 9.56111 55.1133ZM7.20333 2.52889L9.61666 4.94222C10.05 5.37556 10.7544 5.37556 11.1878 4.94222C11.6222 4.50889 11.6222 3.80445 11.1878 3.37111L8.77555 0.957778C8.34111 0.524444 7.63778 0.524444 7.20333 0.957778C6.77 1.39111 6.77 2.09556 7.20333 2.52889ZM48.5578 17.7778C44.58 11.7556 37.7511 7.77778 30 7.77778C17.7356 7.77778 7.77777 17.7356 7.77777 30C7.77777 42.2644 17.7356 52.2222 30 52.2222C37.7511 52.2222 44.58 48.2444 48.5578 42.2222H37.7778C31.3544 42.2222 26.1111 36.7611 26.1111 30C26.1111 23.2389 31.3544 17.7778 37.7778 17.7778H48.5578ZM19.2389 32.5489C18.7689 32.85 18.2111 33.0244 17.6111 33.0244C15.9422 33.0244 14.5867 31.6689 14.5867 30C14.5867 28.3311 15.9422 26.9756 17.6111 26.9756C18.2111 26.9756 18.7689 27.15 19.2389 27.4511C19.7556 27.7811 20.4433 27.6311 20.7744 27.1144C21.1044 26.5989 20.9544 25.91 20.4378 25.58C19.6222 25.0567 18.6522 24.7533 17.6111 24.7533C14.7156 24.7533 12.3644 27.1044 12.3644 30C12.3644 32.8956 14.7156 35.2467 17.6111 35.2467C18.6522 35.2467 19.6222 34.9433 20.4378 34.42C20.9544 34.09 21.1044 33.4011 20.7744 32.8856C20.4433 32.3689 19.7556 32.2189 19.2389 32.5489ZM17.2933 31.1111H21.1111C21.7244 31.1111 22.2222 30.6133 22.2222 30C22.2222 29.3867 21.7244 28.8889 21.1111 28.8889H17.2933C16.68 28.8889 16.1822 29.3867 16.1822 30C16.1822 30.6133 16.68 31.1111 17.2933 31.1111ZM55.92 40C57.12 36.8967 57.7778 33.5244 57.7778 30C57.7778 26.4756 57.12 23.1033 55.92 20H37.7778C32.5489 20 28.3333 24.4967 28.3333 30C28.3333 35.5033 32.5489 40 37.7778 40H55.92ZM54.9478 17.7778C50.4222 8.56778 40.9467 2.22222 30 2.22222V5.55556C39.04 5.55556 46.9411 10.4733 51.17 17.7778H54.9478ZM54.9478 42.2222H51.17C46.9411 49.5267 39.04 54.4444 30 54.4444V57.7778C40.9467 57.7778 50.4222 51.4322 54.9478 42.2222ZM45.5556 30C45.5556 25.7078 42.07 22.2222 37.7778 22.2222C33.4856 22.2222 30 25.7078 30 30C30 34.2922 33.4856 37.7778 37.7778 37.7778C42.07 37.7778 45.5556 34.2922 45.5556 30ZM43.3333 30C43.3333 33.0667 40.8444 35.5556 37.7778 35.5556C34.7111 35.5556 32.2222 33.0667 32.2222 30C32.2222 26.9333 34.7111 24.4444 37.7778 24.4444C40.8444 24.4444 43.3333 26.9333 43.3333 30ZM51.1456 0.957778L48.7322 3.37111C48.2989 3.80445 48.2989 4.50889 48.7322 4.94222C49.1667 5.37556 49.87 5.37556 50.3044 4.94222L52.7167 2.52889C53.1511 2.09556 53.1511 1.39111 52.7167 0.957778C52.2833 0.524444 51.5789 0.524444 51.1456 0.957778ZM48.7889 56.6844L51.2011 59.0978C51.6356 59.5311 52.3389 59.5311 52.7733 59.0978C53.2067 58.6644 53.2067 57.96 52.7733 57.5267L50.36 55.1133C49.9267 54.68 49.2222 54.68 48.7889 55.1133C48.3544 55.5467 48.3544 56.2511 48.7889 56.6844ZM51.8756 53.4867L54.2889 55.8989C54.7222 56.3333 55.4256 56.3333 55.86 55.8989C56.2933 55.4656 56.2933 54.7611 55.86 54.3278L53.4467 51.9144C53.0133 51.4811 52.3089 51.4811 51.8756 51.9144C51.4422 52.3489 51.4422 53.0522 51.8756 53.4867ZM54.3444 4.04445L51.9311 6.45778C51.4978 6.89111 51.4978 7.59556 51.9311 8.02889C52.3644 8.46222 53.0689 8.46222 53.5022 8.02889L55.9156 5.61667C56.3489 5.18222 56.3489 4.47889 55.9156 4.04445C55.4822 3.61111 54.7778 3.61111 54.3444 4.04445ZM57.4311 7.24333L55.0178 9.65667C54.5844 10.09 54.5844 10.7944 55.0178 11.2278C55.4522 11.6611 56.1556 11.6611 56.5889 11.2278L59.0022 8.81444C59.4356 8.38111 59.4356 7.67667 59.0022 7.24333C58.5689 6.81 57.8644 6.81 57.4311 7.24333ZM55.0744 50.4L57.4867 52.8122C57.9211 53.2467 58.6244 53.2467 59.0589 52.8122C59.4922 52.3789 59.4922 51.6744 59.0589 51.2411L56.6456 48.8278C56.2122 48.3944 55.5078 48.3944 55.0744 48.8278C54.64 49.2622 54.64 49.9656 55.0744 50.4Z" fill="#FF6105"/>
</svg>
