<svg width="95" height="95" viewBox="0 0 95 95" fill="none" xmlns="http://www.w3.org/2000/svg">
<path d="M94.4737 38.5929C94.4737 38.6186 94.4865 38.6314 94.4865 38.6443C94.4865 38.6314 94.4737 38.6058 94.4737 38.5929ZM59.7182 43.4443C61.6947 42.3534 63.2605 40.8518 64.2231 39.1576C64.5311 38.8753 64.7108 38.5031 64.7365 38.0924C64.775 37.9897 64.8263 37.8742 64.8648 37.7715H64.7365C64.7108 36.8988 63.9792 36.2057 63.0937 36.2057C62.2466 36.2057 61.5407 36.8475 61.4637 37.6945H61.438C60.1674 39.286 58.4861 40.4026 56.407 41.1983C54.3278 41.994 51.8379 42.5074 48.9374 42.5074C45.9341 42.5074 43.4442 41.917 41.1084 40.9673C38.811 40.0432 36.873 38.4132 35.5639 36.3212C34.2805 34.2549 33.6388 32.0474 33.6388 29.519C33.6388 26.9265 34.2933 24.4366 35.4484 22.0366C36.565 19.6879 38.3747 17.7499 40.6335 16.4665C42.918 15.1445 45.5362 14.4643 48.809 14.4643C52.6722 14.4643 55.6882 15.4782 57.8444 17.4547C60.0006 19.4312 60.6423 21.8954 60.6423 24.8345C60.6423 26.4773 60.437 28.0559 59.6797 29.5832C58.9225 31.1105 58.1781 31.9447 56.946 32.856C56.0348 33.549 53.9813 34.3576 53.3909 34.3576C53.1984 34.3576 53.0315 34.2806 52.8903 34.1266C52.7492 33.9854 52.685 33.7544 52.685 33.4592C52.7235 32.9073 52.8133 32.3554 52.9417 31.8035L55.6369 21.4975C55.7652 21.2665 55.8679 21.0227 55.8679 20.7403L55.8551 20.6633L55.8679 20.612H55.8551V20.5991C55.8551 19.7392 55.1364 19.0333 54.2636 19.0333C53.8401 19.0333 53.4422 19.1874 53.1342 19.4825C52.839 19.7777 52.6593 20.1756 52.6593 20.5991L52.6722 20.7403C52.6722 20.843 52.7107 20.9328 52.7363 21.0227L52.5695 21.6259C51.5427 19.9959 49.1299 18.9948 46.9609 18.9948C45.1255 18.9948 42.379 20.2654 40.5052 23.1275C39.1191 25.3222 38.3233 27.8377 38.2207 30.4174C38.1437 32.6891 38.8239 34.7041 40.1458 36.0646C41.4678 37.425 43.0977 37.8229 44.1116 37.8229C45.9726 37.8229 47.6282 37.1426 49.0529 35.7822C49.194 36.3982 49.5534 36.9373 50.0668 37.2967C50.5673 37.6432 51.3245 37.8229 52.3385 37.8229C56.0733 37.8229 59.5129 35.872 61.4124 33.2538C63.0423 31.0335 63.9536 28.0431 63.9536 25.0013C63.9536 22.4473 63.5429 20.0858 62.2851 17.9296C61.0273 15.7734 59.4102 14.1049 57.0358 12.937C54.6615 11.7691 51.9534 11.1787 48.8989 11.1787C45.3052 11.1787 42.0966 11.9103 39.2987 13.3606C36.5009 14.8108 34.2933 16.9927 32.689 19.8804C31.0719 22.781 30.2633 25.8997 30.2633 29.2623C30.2377 32.2271 30.9692 35.1405 32.3939 37.7459C33.8313 40.4282 36.1158 42.5459 38.888 43.8037C41.8014 45.1385 45.2411 45.8058 49.2454 45.8058C53.3524 45.8058 56.8562 45.0229 59.7182 43.4443ZM49.8101 29.7244C49.3352 31.1233 48.7833 32.1886 48.1416 32.9201C47.6924 33.4335 47.2304 33.8057 46.7812 34.0496C46.178 34.3832 45.7288 34.6399 45.0357 34.6399C44.1116 34.6399 42.9437 34.2806 42.3277 33.5619C41.6988 32.8431 41.3907 31.7265 41.3907 30.2121C41.3907 29.0827 41.9811 27.7736 42.4303 26.3104C42.8795 24.8473 43.5469 24.1029 44.4325 23.3072C45.3181 22.5115 46.1266 22.2933 47.1662 22.2933C48.1416 22.2933 49.1684 22.5756 49.7973 23.2944C50.439 24.0131 50.8368 24.5778 50.8368 25.9254C50.8497 27.119 50.2721 28.3254 49.8101 29.7244Z" fill="white"/>
<path d="M94.4866 38.6443C94.4866 38.6186 94.4738 38.6058 94.4738 38.5929C93.3572 34.717 89.6994 32.9073 86.4138 31.2774L86.3625 31.2517L79.3549 28.1201V0L15.5168 0.320859V28.1073L8.56053 31.2132C4.56904 32.7918 0 35.3587 0 41.1598V85.4512C0 90.7133 4.28668 95 9.54877 95H85.2716C90.5337 95 94.8203 90.7133 94.8203 85.4512V41.1598C94.8203 40.2357 94.7048 39.4015 94.4866 38.6443ZM79.3549 33.7544L84.1806 35.9106C86.2598 36.9373 87.5817 37.6945 88.416 38.4004L79.3549 43.3032V33.7544ZM20.6505 29.7244V5.42894L74.2212 5.15942V46.0754L48.6808 59.898C47.8979 60.3215 46.9481 60.3215 46.1652 59.898L20.6505 46.1011V29.7244ZM15.5168 33.7287V43.3288L6.30168 38.3363C7.09741 37.5534 15.5168 33.7287 15.5168 33.7287ZM89.6866 85.4512C89.6866 87.8898 87.7101 89.8662 85.2716 89.8662H9.54877C7.11024 89.8662 5.13375 87.8898 5.13375 85.4512V43.547L43.701 64.4285C44.8561 65.0574 46.1267 65.3654 47.4102 65.3654C48.6808 65.3654 49.9514 65.0574 51.1193 64.4285L89.6866 43.547V85.4512Z" fill="white"/>
</svg>
