<svg width="100" height="100" viewBox="0 0 100 100" fill="none" xmlns="http://www.w3.org/2000/svg">
<path d="M58.3337 33.3334H19.4448C18.7081 33.3334 18.0015 33.0408 17.4806 32.5198C16.9597 31.9989 16.667 31.2923 16.667 30.5556V19.4445C16.667 18.7078 16.9597 18.0013 17.4806 17.4803C18.0015 16.9594 18.7081 16.6667 19.4448 16.6667H58.3337C59.0704 16.6667 59.7769 16.9594 60.2978 17.4803C60.8188 18.0013 61.1114 18.7078 61.1114 19.4445V30.5556C61.1114 31.2923 60.8188 31.9989 60.2978 32.5198C59.7769 33.0408 59.0704 33.3334 58.3337 33.3334ZM22.2225 27.7779H55.5559V22.0556H22.2225V27.7779Z" fill="white"/>
<path d="M58.3337 39.1111H19.4448C18.7081 39.1111 18.0015 39.4037 17.4806 39.9247C16.9597 40.4456 16.667 41.1521 16.667 41.8889V52.7778C16.667 53.5145 16.9597 54.221 17.4806 54.7419C18.0015 55.2629 18.7081 55.5555 19.4448 55.5555H51.0003L61.1114 45.2777V41.8889C61.1114 41.1521 60.8188 40.4456 60.2978 39.9247C59.7769 39.4037 59.0704 39.1111 58.3337 39.1111ZM55.5559 50H22.2225V44.4444H55.5559V50Z" fill="white"/>
<path d="M30.7223 87.5279V87.3612L31.6112 83.5001H11.1112V11.1112H66.6668V39.5834L72.2223 34.3334V8.33344C72.2223 7.59673 71.9297 6.89019 71.4087 6.36926C70.8878 5.84832 70.1813 5.55566 69.4445 5.55566H8.33344C7.59673 5.55566 6.89019 5.84832 6.36926 6.36926C5.84832 6.89019 5.55566 7.59673 5.55566 8.33344V86.1112C5.55566 86.8479 5.84832 87.5545 6.36926 88.0754C6.89019 88.5963 7.59673 88.889 8.33344 88.889H30.5557C30.5786 88.4319 30.6343 87.977 30.7223 87.5279Z" fill="white"/>
<path d="M61.111 53.25L58.9443 55.4444C59.4819 55.3336 59.9746 55.0661 60.3602 54.6755C60.7458 54.2849 61.007 53.7889 61.111 53.25Z" fill="black"/>
<path d="M16.667 74.8333C16.667 75.57 16.9597 76.2766 17.4806 76.7975C18.0015 77.3184 18.7081 77.6111 19.4448 77.6111H32.8892L33.7225 74L34.0837 72.4722V72.3333H22.2225V66.6666H39.8337L45.3892 61.1111H19.4448C18.7081 61.1111 18.0015 61.4037 17.4806 61.9247C16.9597 62.4456 16.667 63.1521 16.667 63.8889V74.8333Z" fill="white"/>
<path d="M93.0278 46.3055L83.6667 36.9443C83.2513 36.5278 82.7577 36.1972 82.2143 35.9717C81.6709 35.7462 81.0884 35.6301 80.5 35.6301C79.9117 35.6301 79.3292 35.7462 78.7858 35.9717C78.2424 36.1972 77.7488 36.5278 77.3334 36.9443L39.25 75.2499L36.1111 88.611C35.9936 89.1874 35.991 89.7814 36.1034 90.3588C36.2158 90.9362 36.441 91.4858 36.7661 91.9761C37.0912 92.4664 37.5099 92.8877 37.9981 93.2159C38.4863 93.5441 39.0344 93.7728 39.6111 93.8888C39.8975 93.9176 40.1859 93.9176 40.4723 93.8888C40.8126 93.9443 41.1597 93.9443 41.5 93.8888L54.9723 90.9166L93.0278 52.7777C93.4435 52.3646 93.7735 51.8734 93.9986 51.3323C94.2238 50.7912 94.3397 50.211 94.3397 49.6249C94.3397 49.0388 94.2238 48.4586 93.9986 47.9175C93.7735 47.3764 93.4435 46.8852 93.0278 46.4721V46.3055ZM52.1389 85.861L41.9723 88.111L44.4445 78.0277L73 49.1666L80.8334 56.9999L52.1389 85.861ZM83.9723 53.861L76.1389 46.0277L80.5556 41.6666L88.4445 49.5555L83.9723 53.861Z" fill="white"/>
</svg>
