<svg width="101" height="101" viewBox="0 0 101 101" fill="none" xmlns="http://www.w3.org/2000/svg">
<path d="M66.3333 13.5556V34.6667M66.3333 34.6667H87.4444M66.3333 34.6667L98 3M84.8056 98C39.6256 98 3 61.3743 3 16.1944C3 14.1561 3.07457 12.1351 3.22109 10.1341C3.38924 7.83772 3.47331 6.68954 4.07508 5.64432C4.57352 4.77866 5.4568 3.95771 6.35656 3.52382C7.44289 3 8.70992 3 11.2439 3H26.1131C28.244 3 29.3095 3 30.2229 3.35071C31.0297 3.66051 31.7481 4.1637 32.315 4.81608C32.9567 5.5546 33.3208 6.55595 34.0491 8.55861L40.2036 25.4836C41.0507 27.8136 41.4745 28.9786 41.4027 30.084C41.3394 31.0586 41.0063 31.9965 40.4416 32.7934C39.8012 33.697 38.7382 34.3349 36.6122 35.6104L29.3889 39.9444C35.7322 53.9247 47.07 65.2772 61.0556 71.6111L65.3897 64.3879C66.6653 62.2615 67.3029 61.1986 68.2064 60.5584C69.0034 59.9937 69.9412 59.6606 70.916 59.5973C72.0212 59.5255 73.1865 59.9493 75.5167 60.7964L92.4414 66.9508C94.4438 67.6792 95.4455 68.0433 96.1839 68.6851C96.8362 69.2519 97.3397 69.9702 97.649 70.7772C98 71.6903 98 72.7559 98 74.887V89.7561C98 92.29 98 93.5572 97.4759 94.6433C97.0421 95.5432 96.2214 96.4267 95.3558 96.9249C94.3103 97.5266 93.1624 97.6105 90.866 97.7789C88.8647 97.9256 86.8438 98 84.8056 98Z" stroke="white" stroke-width="6" stroke-linecap="round" stroke-linejoin="round"/>
</svg>
