<svg width="95" height="95" viewBox="0 0 95 95" fill="none" xmlns="http://www.w3.org/2000/svg">
<path d="M47.5 0C38.1057 0 28.9217 2.78581 21.1104 8.00517C13.2991 13.2245 7.21091 20.643 3.61576 29.3225C0.0206003 38.0017 -0.92008 47.5528 0.912708 56.7666C2.7455 65.981 7.26946 74.4443 13.9125 81.0878C20.5554 87.7306 29.0191 92.2544 38.2333 94.0873C47.4472 95.9202 56.9982 94.9791 65.6777 91.384C74.3571 87.7888 81.7754 81.7011 86.9951 73.8897C92.2141 66.0784 95 56.8949 95 47.5C95 34.9022 89.9953 22.8204 81.0878 13.9124C72.1798 5.00442 60.0976 0 47.5 0ZM70.8344 32.5375L63.0562 69.2906C62.4625 71.9031 60.9188 72.4968 58.7219 71.3093L46.8469 62.5218L40.9094 68.0437C40.6297 68.4088 40.2705 68.7057 39.859 68.9118C39.4476 69.1172 38.9945 69.2264 38.5344 69.2312L39.3656 57.3562L61.3344 37.4656C62.3438 36.6343 61.3344 36.1593 59.9094 36.9906L32.9531 53.9124L21.0781 50.2312C18.525 49.4593 18.4656 47.6781 21.6125 46.4906L67.3906 28.6781C69.6469 28.025 71.5469 29.3312 70.8344 32.5375Z" fill="white"/>
</svg>
