<svg width="95" height="95" viewBox="0 0 95 95" fill="none" xmlns="http://www.w3.org/2000/svg">
<path fill-rule="evenodd" clip-rule="evenodd" d="M75.1498 67.0752C74.0051 70.3156 69.4545 72.9964 65.8255 73.7804C63.3413 74.3078 60.1017 74.725 49.1862 70.2017C36.9265 65.1224 19.9025 47.0296 19.9025 34.9895C19.9025 28.8601 23.4365 21.7229 29.6163 21.7229C32.5898 21.7229 33.2453 21.7809 34.2238 24.1281C35.3685 26.8934 38.1615 33.7066 38.494 34.405C39.8668 37.2701 37.0975 38.9474 35.0882 41.4419C34.447 42.1926 33.7203 43.0045 34.5325 44.4014C35.34 45.7698 38.133 50.3217 42.237 53.9756C47.538 58.6985 51.8367 60.2063 53.3757 60.8478C54.5205 61.3229 55.8885 61.2123 56.7245 60.319C57.7838 59.1739 59.0995 57.274 60.439 55.402C61.3842 54.062 62.586 53.8947 63.8448 54.3699C64.695 54.6645 75.5012 59.683 75.9572 60.486C76.2945 61.0704 76.2946 63.8347 75.1498 67.0752ZM47.5095 0H47.4857C21.299 0 0 21.3054 0 47.5C0 57.8866 3.34878 67.5229 9.04403 75.339L3.12552 92.9891L21.3798 87.156C28.8895 92.126 37.8527 95 47.5095 95C73.6962 95 95 73.6946 95 47.5C95 21.3054 73.6962 0 47.5095 0Z" fill="white"/>
</svg>
