<svg width="31" height="30" viewBox="0 0 31 30" fill="none" xmlns="http://www.w3.org/2000/svg">
<path fill-rule="evenodd" clip-rule="evenodd" d="M30.0394 15C30.0394 23.2843 23.3148 30 15.0197 30C6.72454 30 0 23.2843 0 15C0 6.71573 6.72454 0 15.0197 0C23.3148 0 30.0394 6.71573 30.0394 15ZM23.7557 8.01093C24.0814 7.68563 24.0814 7.15824 23.7557 6.83295L23.166 6.24397C22.8403 5.91868 22.3122 5.91868 21.9865 6.24397L18.4479 9.7779L16.9735 8.30538C16.7349 8.06716 16.3762 7.9959 16.0645 8.12482C15.7528 8.25375 15.5497 8.55747 15.5497 8.89437V13.6063C15.5497 14.0663 15.9231 14.4392 16.3837 14.4392H21.1018C21.4391 14.4392 21.7433 14.2362 21.8723 13.925C22.0014 13.6138 21.9301 13.2555 21.6916 13.0173L20.2172 11.5449L23.7557 8.01093ZM8.12282 7.32088C6.93021 7.32088 5.92076 8.24743 6.00491 9.43796C6.54419 17.0679 12.9243 23.4345 20.5312 23.9749C21.7208 24.0595 22.6466 23.0493 22.6466 21.8558V20.2205H22.6809V19.3352C22.6809 18.7226 22.3128 18.17 21.7477 17.9344L19.1856 16.866C18.5615 16.6057 17.8406 16.7905 17.4182 17.3188L16.7248 18.1863C16.4687 18.5067 16.0152 18.5961 15.6719 18.3713C14.0455 17.307 12.7081 15.8371 11.8032 14.1051C11.6272 13.7681 11.7281 13.3581 12.0251 13.1203L12.6905 12.5876C13.2185 12.1649 13.4031 11.4434 13.143 10.8188L12.0755 8.25479C11.84 7.68926 11.2879 7.32088 10.6757 7.32088H8.12282Z" fill="#FF6105"/>
</svg>
