<svg width="37" height="34" viewBox="0 0 37 34" fill="none" xmlns="http://www.w3.org/2000/svg">
<path d="M21.889 9.46581C21.3775 8.84254 20.5503 8.84506 20.0413 9.47145C19.5325 10.0979 19.5346 11.1109 20.046 11.7342L21.889 9.46581ZM25.2979 18.1343C25.8094 18.7575 26.6366 18.7549 27.1456 18.1285C27.6544 17.5022 27.6523 16.4891 27.1409 15.8657L25.2979 18.1343ZM27.1409 18.1343C27.6523 17.5109 27.6544 16.4978 27.1456 15.8715C26.6366 15.2451 25.8094 15.2426 25.2979 15.8657L27.1409 18.1343ZM20.046 22.2657C19.5346 22.8891 19.5325 23.9022 20.0413 24.5286C20.5503 25.1549 21.3775 25.1575 21.889 24.5343L20.046 22.2657ZM26.2194 18.6C26.9409 18.6 27.5259 17.8836 27.5259 17C27.5259 16.1164 26.9409 15.4 26.2194 15.4V18.6ZM1.83233 15.4C1.1108 15.4 0.525879 16.1164 0.525879 17C0.525879 17.8836 1.1108 18.6 1.83233 18.6V15.4ZM20.046 11.7342L25.2979 18.1343L27.1409 15.8657L21.889 9.46581L20.046 11.7342ZM25.2979 15.8657L20.046 22.2657L21.889 24.5343L27.1409 18.1343L25.2979 15.8657ZM26.2194 15.4H1.83233V18.6H26.2194V15.4Z" fill="#FF6105"/>
<path d="M8.77795 23.4286C8.77795 28.1624 12.6206 32 17.3606 32H25.9433C30.6833 32 34.526 28.1624 34.526 23.4286V10.5714C34.526 5.83756 30.6833 2 25.9433 2H17.3606C12.6206 2 8.77795 5.83756 8.77795 10.5714" stroke="#FF6105" stroke-width="3" stroke-linecap="round" stroke-linejoin="round"/>
</svg>
