<svg width="31" height="30" viewBox="0 0 31 30" fill="none" xmlns="http://www.w3.org/2000/svg">
<path d="M15.4472 0C12.4767 0 9.57265 0.87973 7.10269 2.52795C4.63272 4.17616 2.70761 6.51884 1.57081 9.25974C0.434004 12.0006 0.136558 15.0167 0.716092 17.9263C1.29563 20.8361 2.72612 23.5087 4.82666 25.6067C6.9272 27.7044 9.60344 29.133 12.517 29.7118C15.4305 30.2906 18.4505 29.9934 21.195 28.8581C23.9395 27.7228 26.2852 25.8003 27.9357 23.3336C29.5859 20.8669 30.4669 17.9668 30.4669 15C30.4669 11.0217 28.8843 7.20644 26.0678 4.3934C23.251 1.58034 19.4306 0 15.4472 0ZM22.8256 10.275L20.3661 21.8812C20.1784 22.7062 19.6902 22.8937 18.9956 22.5187L15.2407 19.7437L13.3632 21.4875C13.2748 21.6028 13.1612 21.6965 13.0311 21.7616C12.901 21.8265 12.7577 21.861 12.6122 21.8625L12.8751 18.1125L19.8217 11.8312C20.1408 11.5687 19.8217 11.4187 19.3711 11.6812L10.8474 17.025L7.09247 15.8625C6.28517 15.6187 6.26639 15.0562 7.26144 14.6812L21.7367 9.05624C22.4501 8.84999 23.0509 9.26249 22.8256 10.275Z" fill="#05C3FF"/>
</svg>
