<svg width="31" height="30" viewBox="0 0 31 30" fill="none" xmlns="http://www.w3.org/2000/svg">
<path fill-rule="evenodd" clip-rule="evenodd" d="M24.2492 21.1816C23.8873 22.2049 22.4484 23.0515 21.3008 23.2991C20.5153 23.4656 19.491 23.5974 16.0394 22.1689C12.1629 20.565 6.77982 14.8515 6.77982 11.0493C6.77982 9.11373 7.89728 6.85986 9.85134 6.85986C10.7916 6.85986 10.9988 6.87817 11.3083 7.61938C11.6702 8.49265 12.5534 10.6442 12.6585 10.8647C13.0926 11.7695 12.2169 12.2992 11.5816 13.0869C11.3788 13.324 11.1491 13.5804 11.4059 14.0215C11.6612 14.4536 12.5444 15.8911 13.8421 17.0449C15.5183 18.5364 16.8776 19.0125 17.3642 19.2151C17.7262 19.3651 18.1587 19.3302 18.4231 19.0481C18.758 18.6865 19.1741 18.0865 19.5976 17.4954C19.8965 17.0722 20.2765 17.0194 20.6745 17.1694C20.9434 17.2625 24.3604 18.8473 24.5045 19.1008C24.6112 19.2854 24.6112 20.1583 24.2492 21.1816ZM15.5093 0H15.5017C7.22139 0 0.486572 6.72803 0.486572 15C0.486572 18.28 1.54547 21.323 3.34633 23.7913L1.47487 29.365L7.24694 27.5229C9.62155 29.0924 12.4558 30 15.5093 30C23.7896 30 30.5259 23.272 30.5259 15C30.5259 6.72803 23.7896 0 15.5093 0Z" fill="#05FF1E"/>
</svg>
